<svg width="37" height="22" viewBox="0 0 37 22" fill="none" xmlns="http://www.w3.org/2000/svg">
<path d="M23.6309 2.34277H13.9355V19.6391H23.6309V2.34277Z" fill="#FF5F00"/>
<path d="M14.5512 11C14.5496 9.33422 14.9298 7.68994 15.6631 6.19162C16.3963 4.69331 17.4632 3.38023 18.7832 2.3518C17.1486 1.0763 15.1855 0.28309 13.1183 0.0628239C11.0511 -0.157442 8.96316 0.204118 7.09315 1.10619C5.22314 2.00827 3.6465 3.41447 2.54346 5.16404C1.44041 6.91361 0.855469 8.93598 0.855469 11C0.855469 13.064 1.44041 15.0864 2.54346 16.8359C3.6465 18.5855 5.22314 19.9917 7.09315 20.8938C8.96316 21.7958 11.0511 22.1574 13.1183 21.9371C15.1855 21.7169 17.1486 20.9237 18.7832 19.6482C17.4633 18.6197 16.3963 17.3066 15.6631 15.8083C14.9299 14.31 14.5496 12.6657 14.5512 11Z" fill="#EB001B"/>
<path d="M36.7104 11C36.7105 13.064 36.1256 15.0863 35.0226 16.8359C33.9196 18.5855 32.343 19.9917 30.4731 20.8937C28.6031 21.7958 26.5152 22.1574 24.448 21.9371C22.3808 21.7169 20.4177 20.9237 18.7832 19.6482C20.102 18.6187 21.1681 17.3054 21.9012 15.8073C22.6343 14.3092 23.0152 12.6655 23.0152 11C23.0152 9.33448 22.6343 7.69071 21.9012 6.19264C21.1681 4.69456 20.102 3.38127 18.7832 2.3518C20.4177 1.0763 22.3808 0.283085 24.448 0.0628211C26.5152 -0.157442 28.6031 0.204133 30.4731 1.10622C32.343 2.00831 33.9196 3.4145 35.0226 5.16407C36.1256 6.91365 36.7105 8.936 36.7104 11Z" fill="#F79E1B"/>
<path d="M35.6522 17.8078V17.4537H35.796V17.3816H35.4297V17.4537H35.5736V17.8078H35.6522ZM36.3633 17.8078V17.3809H36.251L36.1219 17.6745L35.9927 17.3809H35.8804V17.8078H35.9596V17.4858L36.0808 17.7634H36.163L36.2841 17.4851V17.8078H36.3633Z" fill="#F79E1B"/>
</svg>
