<svg width="72" height="21" viewBox="0 0 72 21" fill="none" xmlns="http://www.w3.org/2000/svg">
<path fill-rule="evenodd" clip-rule="evenodd" d="M19.1323 3.82375e-07V0.00877665C19.1235 0.00877665 16.359 3.34788e-07 15.6218 2.64166C14.946 5.06391 13.0415 11.7514 12.9889 11.9357H12.4623C12.4623 11.9357 10.514 5.09901 9.82942 2.63288C9.09221 -0.00877597 6.31891 3.82375e-07 6.31891 3.82375e-07H0V20.0977H6.31891V8.16193H6.5822H6.84549L10.5315 20.0977H14.9197L18.6057 8.17071H19.1323V20.0977H25.4512V3.82375e-07H19.1323Z" fill="#4DB45E"/>
<path fill-rule="evenodd" clip-rule="evenodd" d="M43.2139 0C43.2139 0 41.3621 0.166749 40.4933 2.1063L36.0174 11.9357H35.4908V0H29.1719V20.0977H35.1397C35.1397 20.0977 37.0793 19.9221 37.9481 17.9913L42.3363 8.16193H42.8629V20.0977H49.1818V0H43.2139Z" fill="#4DB45E"/>
<path fill-rule="evenodd" clip-rule="evenodd" d="M51.9902 9.12695V20.0973H58.3091V13.6906H65.1546C68.1386 13.6906 70.6661 11.7862 71.6052 9.12695H51.9902Z" fill="#4DB45E"/>
<path fill-rule="evenodd" clip-rule="evenodd" d="M65.1543 0H51.1035C51.8056 3.82645 54.6755 6.89815 58.3878 7.89864C59.2303 8.12682 60.1167 8.24969 61.0295 8.24969H71.8594C71.9559 7.79332 71.9998 7.32818 71.9998 6.84549C71.9998 3.06292 68.9369 0 65.1543 0Z" fill="url(#paint0_linear_20_4094)"/>
<defs>
<linearGradient id="paint0_linear_20_4094" x1="51.1052" y1="4.12485" x2="71.9998" y2="4.12485" gradientUnits="userSpaceOnUse">
<stop offset="0.3" stop-color="#00B4E6"/>
<stop offset="1" stop-color="#088CCB"/>
</linearGradient>
</defs>
</svg>
