<svg width="119" height="90" viewBox="0 0 119 90" fill="none" xmlns="http://www.w3.org/2000/svg">
<path d="M68.6213 0.16848C62.2344 0.940842 52.9067 4.11941 51.9858 5.78295C51.4808 6.76326 51.659 7.89209 52.4314 8.63475C53.3226 9.55564 54.3029 9.55564 56.0853 8.66445C59.4421 6.9712 64.9377 5.42648 69.156 4.98089L71.2948 4.74323V7.50591C71.2948 10.0606 71.3542 10.3577 72.0375 11.0112C72.4831 11.4865 73.1069 11.7539 73.6713 11.7539C74.2357 11.7539 74.8596 11.4865 75.3052 11.0112C75.9884 10.3577 76.0478 10.0606 76.0478 7.50591V4.74323L78.2164 4.98089C82.5832 5.42648 87.8709 6.9712 91.6436 8.84269C93.9012 10.0012 97.8522 12.556 99.3078 13.8333L100.437 14.8136L98.476 16.8039C96.248 19.121 95.9807 20.131 97.2877 21.4084C98.5651 22.7155 99.5751 22.4481 101.892 20.1905L103.912 18.2596L105.041 19.626C109.348 24.7355 112.705 32.5482 113.567 39.5589L113.953 42.4998L111.012 42.6483C108.368 42.7672 108.012 42.8563 107.507 43.5098C106.734 44.4604 106.794 45.7972 107.685 46.6587C108.338 47.3419 108.636 47.4013 111.19 47.4013H113.953L113.715 49.5402C113.27 53.9367 111.725 59.2244 109.853 62.9971C108.695 65.2547 106.14 69.2057 104.863 70.6613L103.883 71.7901L101.892 69.8295C99.5751 67.6015 98.5651 67.3342 97.2877 68.6413C95.9807 69.9186 96.248 70.9286 98.5057 73.2457L100.437 75.2657L98.6542 76.7213C93.3665 80.999 85.1973 84.3558 78.3649 85.0688L76.0478 85.3064V82.5437C76.0478 79.989 75.9884 79.692 75.3052 79.0384C74.3546 78.0581 72.9881 78.0581 72.0375 79.0384C71.3542 79.692 71.2948 79.989 71.2948 82.5437V85.3658L69.8986 85.2173C65.8289 84.8608 60.5709 83.4349 56.7685 81.6823C54.1544 80.494 53.382 80.4346 52.4314 81.4149C51.5402 82.2764 51.4511 83.5835 52.2235 84.5044C52.8473 85.2767 57.3923 87.267 60.8383 88.277C65.413 89.5841 68.4133 90 73.6713 90C81.0087 90 86.4153 88.782 92.9803 85.6926C98.0601 83.2864 101.981 80.5237 105.724 76.7807C123.221 59.1947 123.013 30.35 105.279 12.853C98.8325 6.46619 90.5741 2.24792 81.3949 0.614075C78.2164 0.0496597 71.5622 -0.187988 68.6213 0.16848Z" fill="#0B5AB9"/>
<path d="M29.2606 14.8731C28.7853 15.3186 28.5179 15.9425 28.5179 16.5069C28.5179 17.0713 28.7853 17.6951 29.2606 18.1407L29.9735 18.8834H43.6681H57.3627L58.0756 18.1407C58.5509 17.6951 58.8183 17.0713 58.8183 16.5069C58.8183 15.9425 58.5509 15.3186 58.0756 14.8731L57.3627 14.1304H43.6681H29.9735L29.2606 14.8731Z" fill="#0B5AB9"/>
<path d="M84.7815 30.5283L78.4541 36.7963L76.9093 36.321C72.2752 34.8059 67.136 36.7368 65.2051 40.7175C64.0763 43.0049 63.898 45.7378 64.7001 48.144L65.2942 49.8967L64.1357 51.1741C62.7395 52.6891 62.5613 54.0556 63.6604 55.0656C64.7595 56.1053 66.0369 55.927 67.5816 54.5011L68.9184 53.2535L70.4334 53.7585C75.0081 55.2141 80.0879 53.3129 82.1079 49.4214C83.2665 47.1043 83.4744 44.3713 82.6426 41.9057L82.0188 40.1234L88.2571 33.8553C93.7824 28.3003 94.4657 27.4982 94.4657 26.6665C94.4657 26.0129 94.1983 25.4485 93.723 24.9732C93.2477 24.4979 92.6833 24.2305 92.0298 24.2305C91.198 24.2305 90.3959 24.9138 84.7815 30.5283ZM76.0182 41.1037C77.652 41.9057 78.2758 43.0049 78.2758 45.0249C78.2758 47.0449 77.652 48.144 76.0182 48.9461C73.9387 50.0155 70.9978 49.3917 69.6907 47.6093C69.2154 46.9855 69.0669 46.3022 69.0669 45.0249C69.0669 43.7475 69.2154 43.0643 69.6907 42.4404C70.5225 41.3116 72.0672 40.5689 73.6714 40.5689C74.414 40.5689 75.4537 40.8066 76.0182 41.1037Z" fill="#0B5AB9"/>
<path d="M15.0016 29.132C14.5263 29.5776 14.259 30.2014 14.259 30.7658C14.259 31.3303 14.5263 31.9541 15.0016 32.3997L15.7146 33.1423H34.578C47.9755 33.1423 53.6494 33.0532 54.1841 32.8156C55.0456 32.3997 55.6991 31.0629 55.402 30.1717C55.2832 29.8449 54.9267 29.2805 54.5703 28.9835C53.9761 28.419 53.4414 28.3893 34.8454 28.3893H15.7146L15.0016 29.132Z" fill="#0B5AB9"/>
<path d="M0.742655 43.391C0.267356 43.8366 0 44.4604 0 45.0248C0 45.5892 0.267356 46.2131 0.742655 46.6587L1.4556 47.4013H26.1414H50.8273L51.5402 46.6587C52.5205 45.7081 52.5205 44.3416 51.5402 43.391L50.8273 42.6483H26.1414H1.4556L0.742655 43.391Z" fill="#0B5AB9"/>
<path d="M15.0016 57.6499C14.5263 58.0955 14.259 58.7194 14.259 59.2838C14.259 59.8482 14.5263 60.472 15.0016 60.9176L15.7146 61.6603H34.578C47.9755 61.6603 53.6494 61.5712 54.1841 61.3335C55.0456 60.9176 55.6991 59.5808 55.402 58.6897C55.2832 58.3629 54.9267 57.7985 54.5703 57.5014C53.9761 56.937 53.4414 56.9073 34.8454 56.9073H15.7146L15.0016 57.6499Z" fill="#0B5AB9"/>
<path d="M29.2606 71.9089C28.7853 72.3545 28.5179 72.9783 28.5179 73.5428C28.5179 74.1072 28.7853 74.731 29.2606 75.1766L29.9735 75.9193H43.6681H57.3627L58.0756 75.1766C58.5509 74.731 58.8183 74.1072 58.8183 73.5428C58.8183 72.9783 58.5509 72.3545 58.0756 71.9089L57.3627 71.1663H43.6681H29.9735L29.2606 71.9089Z" fill="#0B5AB9"/>
</svg>
