<svg width="91" height="90" viewBox="0 0 91 90" fill="none" xmlns="http://www.w3.org/2000/svg">
<path d="M43.8896 0.332517C43.1283 0.757397 14.0417 25.9139 13.5637 26.5512C12.6609 27.7904 13.1566 29.8617 14.5728 30.6938C15.2102 31.0655 15.5642 31.1364 16.6795 31.1364H18.0427V52.3804H17.1929C16.3786 52.3804 16.3432 52.3627 15.936 51.5837C15.7058 51.1588 15.2456 50.5923 14.9269 50.3445C13.7054 49.4062 13.4575 49.3708 8.25274 49.3708H3.41972L2.49915 49.8311C1.98575 50.0789 1.34843 50.5746 1.04747 50.9287C-0.0678378 52.2919 -0.032431 51.5306 0.0206791 70.0129L0.0737891 86.8134L0.463263 87.5215C0.905847 88.3536 1.77331 89.2033 2.64078 89.6636C3.20728 89.9646 3.72068 90 8.30585 90C13.7939 90 13.9001 89.9823 15.0331 88.9201L15.4934 88.4952L35.746 88.4598C55.981 88.4067 56.0164 88.4067 57.0078 88.0349C57.5566 87.8225 58.2647 87.5038 58.6011 87.3445C60.3183 86.477 88.4843 69.1986 88.98 68.7029C89.2987 68.3842 89.7767 67.7115 90.0422 67.1981C90.4494 66.4191 90.5202 66.0474 90.5202 64.7727C90.5379 63.5335 90.4494 63.1086 90.0953 62.3828C89.1748 60.5062 87.3867 59.3024 85.2977 59.1431C84.2001 59.0722 83.8638 59.1608 78.4819 60.9488C75.3661 61.9756 72.7638 62.8254 72.6929 62.8254C72.6221 62.8254 72.569 55.6909 72.569 46.9809V31.1364H73.9322C75.0475 31.1364 75.4016 31.0655 76.0389 30.6938C77.402 29.8971 77.9331 27.8966 77.1011 26.6397C76.9417 26.3919 75.8618 25.3651 74.7111 24.3737L72.6044 22.5502L72.569 13.8756C72.5513 4.75836 72.5159 4.35118 71.737 3.48371C71.5599 3.28897 71.0996 2.97032 70.7102 2.79328C70.0906 2.51003 69.4886 2.45692 65.6824 2.45692C61.6638 2.45692 61.292 2.47462 60.6016 2.82869C59.2207 3.48371 59.0437 4.01481 58.9374 7.57319L58.8489 10.6359L53.0422 5.62582C49.8379 2.8641 46.97 0.456437 46.669 0.279404C45.9432 -0.11007 44.6685 -0.0923636 43.8896 0.332517ZM59.9111 15.5574L74.3571 28.0383L64.1245 28.1268C53.5733 28.2153 53.2901 28.233 53.0245 28.9411C52.8121 29.4722 52.9183 30.2158 53.2547 30.623L53.591 31.0478L69.4709 31.2249V63.9407L64.514 65.6048C61.7877 66.5077 59.2738 67.3751 59.1145 67.4282C58.8135 67.5167 58.9374 67.0565 58.9374 61.0019C58.9374 53.9383 58.7958 52.4866 57.946 50.3268C56.7599 47.3703 59.5217 47.4057 56.7245 46.0426C54.4231 44.9096 48.9173 46.4497 46.2795 46.4497C43.6417 46.4497 37.2508 45.3167 34.9494 46.4497C32.1523 47.8129 33.8518 47.3703 32.6657 50.3268C32.0992 51.7785 31.6743 54.133 31.6743 55.9387V57.3373L30.8422 56.9124C30.3642 56.6823 29.4791 56.1158 28.8594 55.6555C26.6819 54.0445 24.6106 53.1062 22.2915 52.6636L21.1408 52.4512V31.2249L23.0527 31.1364C24.8054 31.0478 25.0178 31.0124 25.3188 30.623C25.7791 30.0564 25.7437 29.3129 25.2303 28.711L24.8054 28.2153L16.2547 28.0383L30.736 15.522C38.7025 8.63539 45.2705 3.02342 45.3413 3.04113C45.4121 3.05883 51.9623 8.6885 59.9111 15.5574ZM69.524 12.6009C69.5594 18.0536 69.5063 19.6469 69.347 19.5938C69.2408 19.5584 67.5236 18.1244 65.5408 16.4249L61.9647 13.3445L61.947 9.39663V5.46649L65.7178 5.50189L69.4709 5.55501L69.524 12.6009ZM48.2269 46.7153C48.9882 46.91 49.714 45.7239 50.3159 46.0426C51.8207 46.8392 56.6006 45.7593 57.3441 47.2464C58.4949 49.5301 56.2111 52.7876 56.2819 61.0019H58.9374L59.1145 67.4282C58.7958 67.5344 54.4054 68.8799 53.9451 68.933L53.1307 69.0569L53.2193 67.322C53.2901 65.9057 53.237 65.3569 52.9537 64.4895C52.281 62.3651 50.6523 60.4708 48.6341 59.444C46.7575 58.488 46.0317 58.3995 40.7915 58.3995C38.1714 58.3995 35.7106 58.3464 35.3212 58.2756L34.6307 58.1694L33.6216 54.5048C33.7279 51.9201 32.7719 50.4507 33.6216 48.7512C34.3652 47.2641 38.791 46.8392 40.2958 46.0426C42.6326 44.8033 45.7307 46.078 48.2269 46.7153ZM13.0503 52.7344C13.2628 52.9292 13.4752 53.2832 13.5283 53.4957C13.5814 53.7081 13.5992 61.1612 13.5814 70.0483L13.5283 86.2292L13.0326 86.6541C12.537 87.0789 12.5192 87.0789 8.28815 87.0789H4.02164L2.99484 86.0522V69.8182C2.99484 55.8502 3.03025 53.5311 3.26039 53.0885C3.40202 52.823 3.61446 52.5574 3.73838 52.5043C3.86231 52.4512 5.9336 52.3981 8.32355 52.3981C12.4484 52.3804 12.6786 52.3981 13.0503 52.7344ZM21.9905 55.6732C23.7432 56.0627 25.2834 56.8062 27.0006 58.0454C28.8063 59.3732 30.4704 60.2053 32.4886 60.8072C34.0288 61.2675 34.2059 61.2852 39.9948 61.3914L45.9432 61.4976L47.1116 62.0818C49.714 63.3565 50.9178 66.0297 49.9087 68.2603L49.5724 69.0215H43.9427C37.7819 69.0215 36.702 69.1632 34.4006 70.1722C33.002 70.7919 30.8599 72.1373 30.5236 72.6153C30.1341 73.1818 30.1872 74.0316 30.6652 74.4742C31.3733 75.1292 31.8336 75.1115 33.002 74.4033C34.8786 73.2526 35.4628 72.9517 36.6312 72.5268C37.7642 72.1373 37.959 72.1196 46.4566 72.0311L55.1312 71.9426L69.8958 67.0033C85.7757 61.6923 85.3685 61.7986 86.537 62.6306C87.2097 63.1263 87.7054 64.3655 87.5461 65.2153C87.4752 65.5694 87.1743 66.1359 86.8556 66.4545C86.2006 67.145 58.1231 84.2818 56.5475 84.9545L55.4853 85.3971L16.6264 85.4856V55.3899H18.68C19.9192 55.3899 21.2116 55.4962 21.9905 55.6732Z" fill="#0B5AB9"/>
<path d="M38.313 19.5052C37.9059 19.8416 37.8173 20.1072 37.6934 21.2756C37.4279 23.6301 36.2771 25.5598 34.436 26.8167C33.3738 27.5426 31.6035 28.1268 30.4882 28.1268C29.8508 28.1268 29.603 28.233 29.1781 28.6402C28.6293 29.189 28.5408 29.6139 28.8594 30.3043C29.125 30.8708 29.5853 31.0832 30.8422 31.2072C33.6571 31.5081 36.224 33.4024 37.18 35.934C37.3748 36.4297 37.6049 37.4033 37.6934 38.0761C37.8705 39.5986 38.313 40.1651 39.2867 40.1651C40.2604 40.1651 40.6322 39.6517 40.8446 37.9875C41.3049 34.4115 43.8188 31.8268 47.2886 31.2957C48.8819 31.0655 49.3953 30.8177 49.6963 30.1981C49.9087 29.7732 49.891 29.6139 49.6078 29.0474C49.2714 28.3569 49.3422 28.3746 46.9877 27.9675C45.4121 27.6842 43.8896 26.8698 42.8451 25.7368C41.6944 24.4622 41.0925 23.1698 40.8446 21.3641C40.6853 20.2665 40.5437 19.8062 40.2427 19.5052C39.7116 18.9741 38.915 18.9741 38.313 19.5052ZM39.6762 26.6751C39.9772 27.1885 41.7652 28.9234 42.4379 29.366C42.8274 29.6316 42.8274 29.6316 41.8537 30.3751C41.3226 30.8 40.5083 31.6143 40.0657 32.1809L39.2513 33.243L38.5078 32.234C38.0829 31.6852 37.3039 30.8708 36.7374 30.4459L35.7106 29.6493L36.224 29.2952C37.1092 28.6402 38.1714 27.6134 38.6671 26.8875C38.9327 26.4981 39.2159 26.1794 39.269 26.1794C39.3398 26.1794 39.5169 26.3919 39.6762 26.6751Z" fill="#0B5AB9"/>
<path d="M17.069 1.48323C16.6441 1.89041 16.6264 2.01433 16.6264 3.944C16.6264 5.82056 16.6618 6.01529 17.0513 6.45788C17.6355 7.14831 18.6269 7.14831 19.2288 6.45788C19.6537 5.96218 19.6537 5.85596 19.6006 3.83778C19.5475 1.855 19.5121 1.69567 19.1226 1.37701C18.5384 0.899023 17.6001 0.93443 17.069 1.48323Z" fill="#0B5AB9"/>
<path d="M11.0499 7.50237C10.3948 8.1397 10.448 9.02486 11.1561 9.60907C11.6518 10.034 11.8111 10.0694 13.4929 10.0694C14.5905 10.0694 15.4757 9.98084 15.7413 9.83922C16.6972 9.36123 16.8566 8.1751 16.0953 7.41386C15.7767 7.0952 15.4934 7.05979 13.6169 7.05979C11.581 7.05979 11.457 7.07749 11.0499 7.50237Z" fill="#0B5AB9"/>
<path d="M20.0786 7.50237C19.5121 8.05118 19.5121 8.83013 20.0609 9.48515C20.4858 9.98084 20.5035 9.98084 22.6456 9.98084C24.7877 9.98084 24.8054 9.98084 25.2303 9.48515C25.7791 8.83013 25.7791 8.05118 25.2126 7.50237C24.8054 7.07749 24.6815 7.05979 22.6456 7.05979C20.6097 7.05979 20.4858 7.07749 20.0786 7.50237Z" fill="#0B5AB9"/>
<path d="M17.069 10.5119C16.6441 10.9191 16.6264 11.043 16.6264 12.9904C16.6264 15.0263 16.6264 15.0617 17.1398 15.5751C17.4585 15.8761 17.848 16.0885 18.1312 16.0885C18.4145 16.0885 18.8039 15.8761 19.1226 15.5751C19.6183 15.0617 19.636 15.0086 19.636 13.1674C19.636 11.2201 19.4236 10.4057 18.8393 10.1756C18.2197 9.94544 17.4939 10.0694 17.069 10.5119Z" fill="#0B5AB9"/>
<path d="M76.0212 39.1914C75.7025 39.4923 75.5786 39.811 75.5786 40.2713C75.5786 40.8201 75.7379 41.0856 76.8709 42.2364C78.181 43.6172 79.0308 44.1483 79.5973 43.9359C80.27 43.7057 80.7126 43.1215 80.7126 42.4665C80.7126 41.8823 80.5532 41.6698 79.137 40.289C77.3666 38.5541 76.8355 38.3593 76.0212 39.1914Z" fill="#0B5AB9"/>
<path d="M83.9523 40.2005C82.1996 41.9354 81.9518 42.5727 82.713 43.4402C83.0494 43.8297 83.2973 43.9536 83.8107 43.9536C84.3949 43.9536 84.6073 43.7942 86.0413 42.3426C87.8293 40.5368 87.9709 40.1297 87.1035 39.2622C86.2006 38.3593 85.6872 38.5186 83.9523 40.2005Z" fill="#0B5AB9"/>
<path d="M78.6767 45.7239C78.3934 45.8478 77.5614 46.556 76.8709 47.2995C75.7025 48.5033 75.5786 48.6981 75.5786 49.3354C75.5786 49.9019 75.6848 50.132 76.0389 50.4153C76.9418 51.1234 77.4197 50.9464 79.137 49.2469C80.5532 47.866 80.7126 47.6536 80.7126 47.0694C80.7126 45.9718 79.6681 45.2813 78.6767 45.7239Z" fill="#0B5AB9"/>
<path d="M83.0671 45.8124C82.3944 46.2373 82.1819 47.0163 82.536 47.7244C82.6776 47.9899 83.4035 48.8043 84.1293 49.4947C85.6872 50.9995 86.2183 51.1411 87.1035 50.2737C87.9709 49.4062 87.8293 48.999 86.0767 47.2287C85.2092 46.3612 84.3241 45.6177 84.0762 45.5646C83.793 45.5115 83.4212 45.6 83.0671 45.8124Z" fill="#0B5AB9"/>
<path d="M31.4972 47.0694H34.6838V59.6387H31.4972V47.0694Z" fill="#0B5AB9"/>
<path d="M55.9279 48.1316H59.1145V69.7297H55.9279V48.1316Z" fill="#0B5AB9"/>
<path d="M31.4972 48.1316V44.945H59.1145V48.1316H31.4972Z" fill="#0B5AB9"/>
<path d="M35.2149 51.2297C35.2149 50.9852 35.4131 50.7871 35.6575 50.7871H54.9542C55.1986 50.7871 55.3968 50.9852 55.3968 51.2297C55.3968 51.4741 55.1986 51.6722 54.9542 51.6722H35.6575C35.4131 51.6722 35.2149 51.4741 35.2149 51.2297Z" fill="#0B5AB9"/>
<path d="M35.0379 54.7703C35.0379 54.5259 35.2361 54.3277 35.4805 54.3277H54.7772C55.0216 54.3277 55.2197 54.5259 55.2197 54.7703C55.2197 55.0148 55.0216 55.2129 54.7772 55.2129H35.4805C35.2361 55.2129 35.0379 55.0148 35.0379 54.7703Z" fill="#0B5AB9"/>
<path d="M35.0379 58.311C35.0379 58.0666 35.2361 57.8684 35.4805 57.8684H54.7772C55.0216 57.8684 55.2197 58.0666 55.2197 58.311C55.2197 58.5554 55.0216 58.7536 54.7772 58.7536H35.4805C35.2361 58.7536 35.0379 58.5554 35.0379 58.311Z" fill="#0B5AB9"/>
<path d="M48.6695 61.8517C48.6695 61.6072 48.8676 61.4091 49.1121 61.4091H54.7772C55.0216 61.4091 55.2197 61.6072 55.2197 61.8517C55.2197 62.0961 55.0216 62.2943 54.7772 62.2943H49.1121C48.8676 62.2943 48.6695 62.0961 48.6695 61.8517Z" fill="#0B5AB9"/>
<path d="M50.9709 65.3923C50.9709 65.1479 51.1691 64.9498 51.4135 64.9498H54.7772C55.0216 64.9498 55.2197 65.1479 55.2197 65.3923C55.2197 65.6368 55.0216 65.8349 54.7772 65.8349H51.4135C51.1691 65.8349 50.9709 65.6368 50.9709 65.3923Z" fill="#0B5AB9"/>
</svg>
