<svg width="90" height="90" viewBox="0 0 90 90" fill="none" xmlns="http://www.w3.org/2000/svg">
<path d="M37.6348 0.298828C37.4062 0.492188 36.6328 2.17969 35.7188 4.46484L34.1895 8.29688L32.2559 8.98242C31.1836 9.35156 29.5137 10.0547 28.5293 10.5293L26.7188 11.4082L22.7812 9.7207C19.1426 8.17383 18.791 8.05078 18.3164 8.24414C17.6133 8.54297 8.31445 17.9121 8.17383 18.457C8.10352 18.791 8.49023 19.916 9.73828 22.8164L11.4082 26.7188L10.5293 28.5117C10.0547 29.5137 9.35156 31.1836 8.98242 32.2559L8.29688 34.1895L4.46484 35.7188C2.17969 36.6328 0.492188 37.4062 0.316406 37.6348C0.0175781 37.9688 0 38.6016 0 45C0 51.3984 0.0175781 52.0312 0.316406 52.3652C0.492188 52.5938 2.17969 53.3672 4.46484 54.2812L8.29688 55.8105L8.98242 57.7441C9.35156 58.8164 10.0547 60.4863 10.5293 61.4883L11.4082 63.2812L9.73828 67.1836C8.49023 70.084 8.10352 71.209 8.17383 71.543C8.31445 72.0879 17.6133 81.457 18.3164 81.7559C18.791 81.9492 19.1426 81.8262 22.7812 80.2793L26.7188 78.5918L28.5293 79.4707C29.5137 79.9453 31.1836 80.6484 32.2559 81.0176L34.1895 81.7031L35.7188 85.5352C36.6328 87.8203 37.4062 89.5078 37.6348 89.6836C37.9688 89.9824 38.6016 90 45 90C51.3984 90 52.0312 89.9824 52.3652 89.6836C52.5938 89.5078 53.3672 87.8203 54.2812 85.5352L55.8105 81.7031L57.7441 81.0176C58.8164 80.6484 60.4863 79.9453 61.4883 79.4707L63.2812 78.5918L67.1836 80.2617C70.084 81.5098 71.209 81.8965 71.543 81.8262C72.0879 81.6855 81.457 72.3867 81.7559 71.6836C81.9492 71.209 81.8262 70.8574 80.2793 67.2188L78.5918 63.2812L79.4707 61.4707C79.9453 60.4863 80.6484 58.8164 81.0176 57.7441L81.7031 55.8105L85.5352 54.2812C87.8203 53.3672 89.5078 52.5938 89.7012 52.3652C89.9824 52.0312 90 51.3984 90 45C90 38.6016 89.9824 37.9688 89.7012 37.6348C89.5078 37.4062 87.8203 36.6328 85.5352 35.7188L81.7031 34.1895L81.0176 32.2559C80.6484 31.1836 79.9453 29.5137 79.4707 28.5293L78.5918 26.7188L80.2793 22.7812C81.8262 19.1426 81.9492 18.791 81.7559 18.3164C81.457 17.6133 72.0879 8.31445 71.543 8.17383C71.209 8.10352 70.084 8.49023 67.1836 9.73828L63.2812 11.4082L61.4883 10.5293C60.4863 10.0547 58.8164 9.35156 57.7441 8.98242L55.8105 8.29688L54.2812 4.46484C53.3672 2.17969 52.5938 0.492188 52.3652 0.298828C52.0312 0.0175781 51.3984 0 45 0C38.6016 0 37.9688 0.0175781 37.6348 0.298828ZM51.8379 5.50195C52.4531 7.06641 53.1738 8.8418 53.4551 9.43945L53.9297 10.5293L55.2305 10.8984C56.9883 11.4258 60.1172 12.709 61.6465 13.5527C62.3496 13.9219 63.0352 14.2383 63.1758 14.2383C63.3164 14.2383 65.1094 13.5176 67.166 12.6387L70.8926 11.0391L74.918 15.082L78.9609 19.1074L77.3613 22.834C76.4824 24.8906 75.7617 26.7012 75.7617 26.8418C75.7617 27 76.0781 27.6855 76.4473 28.3711C77.2734 29.8828 78.5742 32.9941 79.1016 34.7695L79.4707 36.0703L80.5605 36.5449C81.1582 36.8262 82.9336 37.5469 84.498 38.1621L87.3633 39.2871V45V50.7129L84.498 51.8379C82.9336 52.4531 81.1582 53.1738 80.5605 53.4551L79.4707 53.9297L79.1016 55.2305C78.5742 57.0059 77.2734 60.1172 76.4473 61.6289C76.0781 62.3145 75.7617 63 75.7617 63.1582C75.7617 63.2988 76.4824 65.1094 77.3613 67.166L78.9609 70.8926L74.918 74.918L70.8926 78.9609L67.166 77.3613C65.1094 76.4824 63.3164 75.7617 63.1758 75.7617C63.0352 75.7617 62.3496 76.0781 61.6465 76.4473C60.1172 77.291 56.9883 78.5742 55.2305 79.1016L53.9297 79.4707L53.4551 80.5605C53.1738 81.1582 52.4531 82.9336 51.8379 84.498L50.7129 87.3633H45H39.2871L38.1621 84.498C37.5469 82.9336 36.8262 81.1758 36.5625 80.5781L36.0879 79.5059L34.3652 78.9434C32.291 78.2754 29.6543 77.168 28.1953 76.3594C27.6152 76.0254 27.0176 75.7617 26.877 75.7617C26.7363 75.7617 24.9434 76.4824 22.8691 77.3613L19.125 78.9785L15.082 74.9355L11.0391 70.8926L12.6387 67.166C13.5176 65.1094 14.2383 63.3164 14.2383 63.1758C14.2383 63.0352 13.9219 62.3496 13.5527 61.6465C12.709 60.1172 11.4258 56.9883 10.8984 55.2305L10.5293 53.9297L9.43945 53.4551C8.8418 53.1738 7.06641 52.4531 5.50195 51.8379L2.63672 50.7129V45V39.2871L5.50195 38.1621C7.06641 37.5469 8.8418 36.8262 9.43945 36.5449L10.5293 36.0703L10.8984 34.7695C11.4258 33.0117 12.709 29.8828 13.5527 28.3535C13.9219 27.6504 14.2383 26.9648 14.2383 26.8242C14.2383 26.6836 13.5176 24.8906 12.6387 22.834L11.0391 19.1074L15.082 15.0645L19.125 11.0215L22.8691 12.6387C24.9434 13.5176 26.7363 14.2383 26.877 14.2383C27.0176 14.2383 27.6152 13.9746 28.1953 13.6406C29.6543 12.832 32.291 11.7246 34.3652 11.0566L36.0879 10.4941L36.5625 9.42188C36.8262 8.82422 37.5469 7.06641 38.1621 5.50195L39.2871 2.63672H45H50.7129L51.8379 5.50195Z" fill="#0B5AB9"/>
<path d="M41.7832 16.1895C26.6309 17.9473 15.3282 31.166 16.0489 46.2305C16.6641 58.7813 24.9961 69.3809 36.9492 72.8438C53.543 77.6426 70.4004 67.0606 73.5996 49.8692C73.9688 47.8477 74.0215 42.5391 73.6875 40.6055C72.0879 31.5352 67.0254 24.2227 59.1856 19.7227C54.1582 16.8574 47.5664 15.5039 41.7832 16.1895ZM50.1856 19.1602C60.7149 21.375 68.5899 29.2676 70.8575 39.9024C71.1914 41.4317 71.2617 42.293 71.2617 45C71.2617 47.7071 71.1914 48.5684 70.8575 50.0977C68.5899 60.7676 60.7676 68.5899 50.0977 70.8574C47.4434 71.4375 42.5567 71.4375 39.9024 70.8574C34.4707 69.6973 30.0059 67.2715 26.2442 63.4395C24.5215 61.6641 24.2051 61.2949 23.0801 59.5899C21.1817 56.7598 19.8985 53.6485 19.1426 50.0977C18.6153 47.6016 18.5625 42.9434 19.0547 40.3418C20.9883 29.9707 28.8985 21.6563 39.0235 19.3535C41.625 18.7559 42.7676 18.6504 45.7032 18.7207C47.5489 18.7735 48.9903 18.9141 50.1856 19.1602Z" fill="#0B5AB9"/>
<path d="M41.4316 21.5332C37.459 22.1836 33.5391 23.8359 30.7793 26.0156C30.0059 26.6309 29.8828 26.8066 29.8828 27.334C29.8828 28.0723 30.3926 28.6523 31.0605 28.6523C31.3418 28.6523 32.1152 28.2656 32.9414 27.7031C38.7598 23.8184 45.3691 22.8867 51.7852 25.0488C56.918 26.7715 61.3828 30.6914 63.8789 35.6484C65.3555 38.6016 66.0059 41.4316 66.0059 45C66.0059 47.7598 65.7949 49.1484 65.0215 51.5391C64.002 54.6855 62.3145 57.4277 59.8711 59.8711C56.7949 62.9297 53.0859 64.916 48.7793 65.7598C47.1797 66.0762 42.8203 66.0762 41.2207 65.7598C36.9141 64.916 33.2227 62.9473 30.1289 59.8711C26.2793 56.0215 24.2051 51.293 23.959 45.791C23.7656 41.1855 24.9785 37.0371 27.7031 32.9414C28.2656 32.1152 28.6523 31.3418 28.6523 31.0605C28.6523 30.3398 28.0547 29.8477 27.2812 29.918C26.7012 29.9707 26.5254 30.1113 25.6992 31.2012C23.9414 33.5391 22.3418 37.248 21.6738 40.5703C21.252 42.6797 21.252 47.3379 21.6738 49.3945C22.6406 54.0527 24.6445 57.9375 27.7734 61.2246C31.3242 64.9687 35.4375 67.2539 40.6055 68.3262C42.6621 68.748 47.2852 68.748 49.4297 68.3262C54.1758 67.377 58.2539 65.1797 61.7168 61.7168C65.1797 58.2539 67.3066 54.3164 68.3262 49.3945C68.748 47.3203 68.748 42.6797 68.3262 40.6055C67.6406 37.3535 66.3926 34.3477 64.5996 31.6406C63.4746 29.9531 60.0469 26.5254 58.3594 25.4004C55.7051 23.6426 52.5234 22.3066 49.5703 21.709C47.6191 21.3223 43.3125 21.2168 41.4316 21.5332Z" fill="#0B5AB9"/>
<path d="M37.002 30.9375C32.8535 33.3457 29.3027 35.4902 29.1445 35.7012C28.8457 36.0527 28.8281 36.7559 28.8281 45.0176V53.9473L29.2324 54.3691C29.7422 54.9492 44.543 63.457 45 63.457C45.4746 63.457 60.2578 54.9492 60.7852 54.3867L61.1719 53.9473V45V36.0527L60.7852 35.6133C60.2227 34.998 45.457 26.543 44.9648 26.5605C44.7363 26.5605 41.168 28.5293 37.002 30.9375ZM50.9238 32.8008C54.1934 34.6816 56.918 36.2988 56.9883 36.3516C57.1465 36.5098 45.4043 43.3125 45 43.3125C44.666 43.3125 32.8535 36.5098 32.9766 36.3867C33.0293 36.334 35.7363 34.752 38.9883 32.8535C42.2402 30.9375 44.9297 29.3906 44.9473 29.373C44.9473 29.3555 47.6367 30.9023 50.9238 32.8008ZM37.6172 42.2578L43.5059 45.668L43.5586 52.7168L43.5938 59.7832L42.5742 59.2031C42.0117 58.8867 39.2871 57.3223 36.5098 55.7227L31.4648 52.8223V45.8262C31.4648 41.9941 31.5176 38.8477 31.6055 38.8477C31.6758 38.8477 34.3828 40.377 37.6172 42.2578ZM58.5352 45.8262V52.8223L53.4902 55.7227C50.7305 57.3223 48.0059 58.8867 47.4258 59.2031L46.4062 59.7832L46.4414 52.7344L46.4941 45.668L52.3828 42.2578C55.6172 40.3945 58.3242 38.8477 58.4121 38.8477C58.4824 38.8477 58.5352 41.9941 58.5352 45.8262Z" fill="#0B5AB9"/>
</svg>
