<svg width="55" height="35" viewBox="0 0 55 35" fill="none" xmlns="http://www.w3.org/2000/svg">
<path d="M21.9174 0.141102C21.2803 0.374718 20.6538 0.958758 20.314 1.64899C20.0273 2.23303 20.0166 2.3286 19.9848 4.08072L19.9423 5.90717L16.4275 5.93903L12.902 5.97088L12.1799 6.31069C11.6065 6.58678 11.1711 6.92659 10.1092 7.96724C9.36588 8.67871 7.28457 10.6963 5.46874 12.4378C1.18932 16.5579 0.913226 16.8446 0.541564 17.5667C0.0424756 18.5755 0 19.0003 0 23.1523C0 27.3043 0.0424756 27.6759 0.58404 28.7484C0.945083 29.4493 1.77336 30.2563 2.51668 30.628C3.12196 30.9147 3.17505 30.9253 5.35193 30.9784L7.56066 31.0315L7.74118 31.6155C8.1447 32.9111 9.12164 34.026 10.3747 34.6207C11.0437 34.9393 11.1817 34.9605 12.2117 34.9605C13.2418 34.9605 13.3798 34.9393 14.0382 34.6207C15.2912 34.0367 16.1195 33.0916 16.6292 31.6793L16.8628 31.0315H18.6787C19.6768 31.0315 25.358 31.0421 31.3152 31.0634L42.1358 31.0846L42.1995 31.4456C42.3164 32.0722 42.8792 33.0597 43.4632 33.6331C45.9693 36.1604 50.1425 35.0242 51.1831 31.5306L51.3212 31.0846H52.553C53.8379 31.074 54.0078 31.0209 54.2414 30.5855C54.337 30.4156 54.3688 26.8158 54.3688 16.4517C54.3688 4.43114 54.3476 2.48788 54.2095 2.02065C54.0184 1.38351 53.36 0.587096 52.7335 0.25791L52.2981 0.0242943L37.3255 0.00305646C24.4023 -0.00756245 22.2891 0.00305646 21.9174 0.141102ZM51.8628 1.81889C52.6061 2.12684 52.5636 1.52156 52.5636 11.0361V19.6162H37.1662H21.7688V11.1104C21.7688 3.29492 21.7794 2.58345 21.9493 2.29674C22.3422 1.63837 21.3865 1.67023 37.1449 1.67023C49.1974 1.67023 51.5654 1.69146 51.8628 1.81889ZM19.9635 18.4481V29.2794H18.3813H16.7885L16.6292 28.706C16.2788 27.5166 15.1957 26.3061 14.0063 25.7858C11.5109 24.6814 8.55884 26.115 7.7518 28.8228L7.61376 29.2794H5.80854C4.73603 29.2794 3.83343 29.2263 3.58919 29.152C2.99453 28.9821 2.3043 28.3237 2.02821 27.6866C1.80521 27.1662 1.7946 27.06 1.82645 22.9824C1.85831 19.0003 1.86893 18.7985 2.08131 18.395C2.21935 18.1295 4.02457 16.2925 6.80672 13.5846C12.1587 8.37076 12.7108 7.87167 13.3161 7.73362C13.5497 7.68053 15.1532 7.63805 16.8628 7.62743L19.9635 7.61681V18.4481ZM52.5636 25.4035V29.3856H51.9371C51.3106 29.3856 51.3106 29.3856 51.2362 29.0352C51.0982 28.3874 50.5142 27.3574 49.9513 26.7839C47.4771 24.2673 43.2296 25.4247 42.2208 28.8865L42.0934 29.3325L31.9311 29.3643L21.7688 29.3856V25.4035V21.4214H37.1662H52.5636V25.4035ZM13.4329 27.4529C13.932 27.7078 14.5479 28.3343 14.824 28.8546C15.1319 29.4387 15.1107 30.9784 14.7815 31.6155C14.017 33.081 12.3604 33.665 10.98 32.9641C9.89682 32.412 9.35526 31.4987 9.34464 30.2351C9.34464 28.7803 10.1198 27.6866 11.4684 27.2512C11.9038 27.1025 12.9763 27.2193 13.4329 27.4529ZM47.955 27.4529C49.7071 28.3449 50.1213 30.766 48.7939 32.3376C48.3479 32.8686 47.4453 33.2509 46.6807 33.2402C45.9055 33.2296 45.3852 33.0279 44.7906 32.4863C44.1428 31.9023 43.8561 31.212 43.8667 30.2351C43.8773 28.8759 44.3658 28.037 45.4596 27.4848C46.0648 27.1768 46.2135 27.145 46.8294 27.1875C47.2435 27.2087 47.7001 27.3255 47.955 27.4529Z" fill="#0B5AB9"/>
<path d="M13.5396 10.2715C12.9981 10.399 12.499 10.6538 12.1167 10.9618C11.3415 11.6308 6.38248 16.9615 6.1701 17.365C5.56482 18.5437 5.93648 19.7542 7.06209 20.2639C7.45499 20.4445 7.84789 20.4657 11.8937 20.4657C15.9395 20.4657 16.3324 20.4445 16.7253 20.2639C17.2775 20.0091 17.7129 19.5737 17.9889 18.9791C18.2013 18.5224 18.2119 18.3313 18.2119 15.3155C18.2119 12.2573 18.2013 12.1086 17.9783 11.6201C17.6704 10.9618 17.1713 10.5158 16.5235 10.3246C15.9714 10.1547 14.113 10.1229 13.5396 10.2715ZM16.2899 12.2042C16.4386 12.4059 16.4598 12.8944 16.4598 15.3474V18.2463L16.1944 18.5012L15.9395 18.7667H11.9255C9.71682 18.7667 7.84789 18.7242 7.76294 18.6711C7.66737 18.6074 7.64613 18.48 7.67799 18.3207C7.76294 17.9809 13.0724 12.3635 13.5184 12.1405C13.7626 12.0237 14.1661 11.9706 14.9944 11.9706C16.0457 11.9706 16.1413 11.9918 16.2899 12.2042Z" fill="#0B5AB9"/>
</svg>
