<svg width="38" height="38" viewBox="0 0 38 38" fill="none" xmlns="http://www.w3.org/2000/svg">
<path d="M23.5346 9.59483L23.5346 9.59464C23.4158 9.15257 23.3442 8.90226 23.2731 8.74839C23.2369 8.67018 23.1998 8.61419 23.1546 8.56963C23.1098 8.52529 23.0594 8.49471 23.0012 8.46457C22.9671 8.44643 22.9238 8.43152 22.882 8.42159C22.8407 8.41179 22.7966 8.40581 22.7604 8.40808C22.7601 8.40809 22.7599 8.40811 22.7596 8.40813L22.7629 8.45802L23.5346 9.59483ZM23.5346 9.59483C23.5972 9.83142 23.6539 10.0476 23.6945 10.2051C23.7148 10.2839 23.7311 10.3481 23.7421 10.393C23.7476 10.4154 23.7519 10.4333 23.7547 10.4459C23.756 10.452 23.7572 10.4575 23.7579 10.4618C23.7583 10.4638 23.7587 10.4666 23.759 10.4695C23.7591 10.4708 23.7594 10.4737 23.7592 10.4772C23.7592 10.4789 23.7589 10.4824 23.758 10.4866L23.758 10.4866C23.7574 10.4893 23.7547 10.5008 23.7445 10.511L23.7444 10.5109C23.7434 10.5119 23.7426 10.5128 23.742 10.5134C23.7402 10.5149 23.7371 10.5171 23.7358 10.518C23.7332 10.5196 23.731 10.5207 23.7301 10.5211L23.7252 10.5232L23.7188 10.5254L23.7011 10.5308C23.6863 10.5352 23.6646 10.5415 23.6365 10.5494C23.5803 10.5653 23.4977 10.5883 23.3917 10.6175C23.1797 10.6759 22.8735 10.7595 22.4959 10.8622C21.7407 11.0674 20.6996 11.349 19.5539 11.6579L15.3935 12.784L15.394 12.7857M23.5346 9.59483L15.394 12.7857M15.394 12.7857L15.3807 12.7858M15.394 12.7857L15.3807 12.7858M15.3807 12.7858L12.9095 12.7975H12.9094M15.3807 12.7858L12.9094 12.7975M12.9094 12.7975C12.6431 12.7986 12.4047 12.8 12.1913 12.8012M12.9094 12.7975L12.1913 12.8012M26.9068 17.6888V17.6391V15.8522C26.9068 14.9965 26.9059 14.5464 26.8951 14.2894C26.8897 14.1609 26.8817 14.0784 26.8696 14.0165C26.8573 13.9532 26.8407 13.9126 26.8202 13.8685C26.7097 13.623 26.4822 13.3917 26.2333 13.2733L26.9068 17.6888ZM26.9068 17.6888L26.8572 17.6891L25.0898 17.7008L23.3265 17.7125L23.0215 17.8155C23.0215 17.8155 23.0215 17.8155 23.0214 17.8155C22.5945 17.9617 22.2649 18.1648 21.95 18.4837L21.9496 18.484C21.4581 18.9717 21.2051 19.5425 21.1706 20.2458L21.1706 20.2458C21.1322 21.0096 21.3965 21.6919 21.9458 22.2412C22.4306 22.726 22.8933 22.9515 23.5621 23.0285C23.7512 23.0477 24.5691 23.0673 25.3827 23.0673H26.8568H26.9068V23.1173V24.869C26.9068 25.8389 26.906 26.3354 26.8738 26.6253C26.8576 26.7714 26.8331 26.8691 26.7948 26.9502C26.7567 27.031 26.7061 27.0923 26.6449 27.1652L26.6449 27.1652L26.6437 27.1666C26.5655 27.253 26.4086 27.3776 26.2906 27.4427L26.0795 27.5599L26.0682 27.5662H26.0553H17.9025H9.74981H9.73702L9.7258 27.5601L9.56186 27.4703C9.29563 27.3291 9.11566 27.1497 8.99329 26.9009L8.99328 26.9009L8.8838 26.678L8.87868 26.6676V26.656V20.3802V14.1043V14.0931L8.88347 14.0829L8.98498 13.8682C8.98501 13.8682 8.98504 13.8681 8.98506 13.868C9.11493 13.5881 9.30701 13.3956 9.57208 13.2731C9.57221 13.2731 9.57233 13.273 9.57245 13.273L9.76728 13.1794L9.77754 13.1745H9.78892H17.9025H26.0162H26.0275L26.0378 13.1794L26.2331 13.2732L26.9068 17.6888ZM23.2587 18.142C23.5247 18.0735 23.7331 18.0662 25.6172 18.0662C25.6173 18.0662 25.6173 18.0662 25.6173 18.0662L27.6818 18.0622L27.7026 18.0622L27.7172 18.0769L27.8111 18.1707C27.8415 18.2011 27.8697 18.2442 27.892 18.2872C27.9144 18.3305 27.9328 18.3776 27.9419 18.4181L27.9419 18.4181L27.9424 18.4212C27.9445 18.434 27.9459 18.46 27.9472 18.4935C27.9485 18.5284 27.9498 18.5752 27.9509 18.6322C27.9532 18.7464 27.955 18.9024 27.9562 19.089C27.9587 19.4622 27.9587 19.958 27.9548 20.4861L27.943 22.4137L27.9429 22.4348L27.9277 22.4494L27.8189 22.5544L27.714 22.6632L27.6992 22.6785H27.678H25.6134C24.8099 22.6785 24.2825 22.6756 23.9347 22.6672C23.5898 22.659 23.4165 22.6454 23.3257 22.6223C22.2755 22.3627 21.5321 21.4281 21.5281 20.3569V20.3567C21.5281 19.8715 21.7396 19.2898 22.0631 18.8904C22.1352 18.7998 22.2658 18.6807 22.4054 18.5706C22.5455 18.4601 22.6989 18.3552 22.8184 18.2945L22.8187 18.2943C22.9092 18.2491 23.1046 18.1816 23.2587 18.142ZM23.2587 18.142L23.2712 18.1905L23.2588 18.142C23.2588 18.142 23.2588 18.142 23.2587 18.142ZM12.1913 12.8012C11.8442 12.8032 11.5631 12.8048 11.3356 12.8043M12.1913 12.8012L11.3356 12.8043M11.3356 12.8043C10.969 12.8036 10.7376 12.7975 10.5904 12.7785M11.3356 12.8043L10.5904 12.7785M10.5904 12.7785C10.4457 12.7598 10.3639 12.7266 10.3225 12.6533M10.5904 12.7785L10.3225 12.6533M10.3225 12.6533C10.3036 12.6196 10.2958 12.5817 10.2898 12.5454M10.3225 12.6533L10.2898 12.5454M10.2898 12.5454C10.2882 12.5357 10.2867 12.5258 10.2852 12.5159M10.2898 12.5454L10.2852 12.5159M10.2852 12.5159C10.2807 12.487 10.2761 12.457 10.2681 12.4225M10.2852 12.5159L10.2681 12.4225M10.2681 12.4225L10.3168 12.4112M10.2681 12.4225L10.3168 12.4112M10.3168 12.4112L10.2681 12.4227C10.2359 12.2857 10.2277 12.1674 10.2492 12.0624M10.3168 12.4112C10.3399 12.5106 10.3375 12.5819 10.3685 12.6328L10.2492 12.0624M10.3168 12.4112C10.2542 12.1453 10.2894 11.9694 10.438 11.8247M10.3168 12.4112L10.438 11.8247M10.2492 12.0624C10.271 11.9564 10.3223 11.8676 10.4029 11.789M10.2492 12.0624L10.438 11.8247M10.438 11.8247L10.4027 11.7893C10.4027 11.7892 10.4028 11.7891 10.4029 11.789M10.438 11.8247C10.5397 11.723 10.6922 11.6722 11.5993 11.4298L10.438 11.8247ZM10.4029 11.789C10.4619 11.7302 10.5342 11.6891 10.7005 11.6327C10.8667 11.5763 11.1334 11.5025 11.5864 11.3814L10.4029 11.789ZM8.57324 26.8705C8.72094 27.3023 9.08177 27.6785 9.50253 27.8491C9.50259 27.8491 9.50265 27.8492 9.50271 27.8492L9.7203 27.9355L17.7658 27.9472C20.716 27.9511 22.7452 27.9511 24.0584 27.9462C24.7151 27.9438 25.1925 27.9401 25.5164 27.9351C25.6784 27.9326 25.8018 27.9298 25.8899 27.9266C25.9792 27.9234 26.0285 27.9199 26.046 27.9168C26.527 27.822 26.8931 27.5427 27.113 27.0916L27.1132 27.0911L27.2566 26.8044L27.2682 24.9704L27.28 23.1248L27.2803 23.0808L27.3239 23.0755L27.5465 23.0481C27.5465 23.0481 27.5465 23.0481 27.5466 23.0481C27.6651 23.0328 27.8193 22.9948 27.8838 22.9663C27.9724 22.9236 28.0631 22.8438 28.1378 22.7462C28.2126 22.6485 28.2683 22.5369 28.2899 22.4344L28.2901 22.4335C28.2925 22.4229 28.2955 22.3981 28.2986 22.3575C28.3015 22.318 28.3043 22.2666 28.3068 22.2047C28.3119 22.081 28.3162 21.9167 28.3197 21.7251C28.3266 21.3422 28.3301 20.8514 28.3303 20.3611C28.3306 19.8708 28.3275 19.3812 28.3213 19.0006C28.3181 18.8103 28.3142 18.6475 28.3094 18.5256C28.3071 18.4646 28.3045 18.4141 28.3018 18.3758C28.2989 18.336 28.2961 18.3126 28.294 18.3034L28.2939 18.3028C28.2723 18.2038 28.2193 18.0979 28.1497 18.0049C28.08 17.9118 27.9964 17.8354 27.9166 17.7928C27.8413 17.7534 27.6799 17.7079 27.5637 17.6967L27.5633 17.6967L27.3404 17.6732L27.2961 17.6685L27.2956 17.624L27.2761 15.7667L27.2566 13.9205L27.1367 13.6731C27.1366 13.673 27.1366 13.6729 27.1366 13.6729C26.985 13.37 26.6805 13.0694 26.3781 12.9257C26.2751 12.878 26.2126 12.8537 26.0988 12.8381C25.9813 12.8219 25.8104 12.8151 25.4907 12.8053L24.8065 12.7857L24.7693 12.7847L24.7596 12.7487L24.2083 10.6959C24.0558 10.131 23.9112 9.60432 23.8003 9.2111C23.7449 9.01446 23.6979 8.85139 23.6627 8.73368C23.645 8.67478 23.6304 8.62752 23.6191 8.5932C23.6135 8.57601 23.6088 8.5624 23.6051 8.55234C23.603 8.5465 23.6014 8.54264 23.6004 8.54029C23.5995 8.53815 23.5991 8.53727 23.5991 8.53728L23.5987 8.53647C23.561 8.4666 23.4937 8.38479 23.413 8.30929C23.3325 8.23396 23.2417 8.16783 23.1593 8.12757L23.1585 8.12716C23.146 8.12075 23.1345 8.11465 23.1236 8.10889C23.0577 8.07403 23.0156 8.05173 22.9175 8.05009C22.7964 8.04807 22.595 8.07866 22.1915 8.17192C21.4591 8.34126 20.0784 8.71272 17.3451 9.44811C17.0767 9.52033 16.7952 9.59606 16.5001 9.67544C14.1402 10.3109 12.6106 10.7263 11.6558 10.9926C11.1783 11.1257 10.8449 11.2215 10.6235 11.2889C10.5127 11.3225 10.4304 11.349 10.3723 11.3693C10.3124 11.3902 10.2832 11.4031 10.2737 11.4091C9.92322 11.6417 9.77976 12.0789 9.91501 12.5298L9.91506 12.53C9.93067 12.5826 9.94531 12.6314 9.95605 12.6671L9.96886 12.7095L9.97238 12.7211L9.9733 12.7241L9.97353 12.7249L9.97359 12.725L9.9736 12.7251L9.97361 12.7251L9.92577 12.7397L9.97361 12.7251L9.97577 12.7322V12.7397C9.97577 12.7605 9.96341 12.773 9.96015 12.7762C9.95558 12.7805 9.95117 12.7831 9.94922 12.7842C9.94496 12.7866 9.94097 12.7881 9.93897 12.7888C9.93435 12.7904 9.92909 12.7918 9.92421 12.7931C9.91403 12.7956 9.90023 12.7985 9.88415 12.8015C9.85195 12.8076 9.80821 12.8145 9.76064 12.8205C9.5548 12.8522 9.32736 12.9645 9.12589 13.1239C8.92442 13.2834 8.75314 13.4867 8.65739 13.6951L8.65726 13.6953C8.60457 13.8083 8.54341 14.0108 8.52457 14.139L8.52452 14.1393C8.52217 14.1545 8.51944 14.2052 8.51684 14.295C8.5143 14.3828 8.51195 14.5046 8.50982 14.6586C8.50554 14.9666 8.50212 15.403 8.49968 15.9545C8.49479 17.0575 8.49382 18.6205 8.49773 20.5365C8.50359 23.3676 8.5075 24.9108 8.51776 25.7683C8.52289 26.1972 8.52961 26.4536 8.53888 26.6136C8.54821 26.7745 8.55998 26.8332 8.57304 26.8699L8.57304 26.8699L8.57324 26.8705ZM23.9093 11.0079L23.9095 11.0085C23.9313 11.08 24.0451 11.5037 24.1529 11.9101C24.2069 12.1137 24.2596 12.3136 24.2988 12.4638C24.3184 12.5389 24.3346 12.6016 24.346 12.6463L24.3592 12.6992L24.3629 12.7148L24.3641 12.7205L24.3646 12.7238C24.3647 12.7244 24.3652 12.7277 24.3652 12.7318C24.3652 12.7511 24.3547 12.7634 24.3493 12.7685C24.3438 12.7736 24.3385 12.7763 24.3361 12.7774C24.3312 12.7797 24.3269 12.7807 24.3255 12.7811C24.3241 12.7814 24.3227 12.7817 24.3215 12.7819C24.3194 12.7822 24.3177 12.7825 24.3164 12.7826C24.3118 12.7831 24.306 12.7836 24.2997 12.784C24.2867 12.7847 24.2679 12.7855 24.2439 12.7862C24.1957 12.7877 24.125 12.7891 24.0343 12.7905C23.8528 12.7932 23.5905 12.7958 23.2672 12.798C22.6204 12.8024 21.7287 12.8053 20.7491 12.8053C19.75 12.8053 18.8642 12.8014 18.232 12.795C17.9159 12.7919 17.663 12.7881 17.491 12.7838C17.4051 12.7817 17.339 12.7795 17.2951 12.7772C17.2734 12.776 17.2561 12.7748 17.2443 12.7734C17.2392 12.7728 17.2319 12.7718 17.2254 12.7699C17.2236 12.7694 17.2206 12.7684 17.2172 12.7669C17.2148 12.7657 17.2074 12.7622 17.2005 12.7547C17.1921 12.7454 17.1824 12.7267 17.1901 12.7043C17.1958 12.6876 17.2081 12.6797 17.2113 12.6777C17.2172 12.6741 17.224 12.6715 17.2267 12.6706L17.227 12.6704C17.2291 12.6696 17.2315 12.6688 17.2341 12.6679C17.2366 12.667 17.2394 12.6661 17.2423 12.6652C17.2542 12.6613 17.2705 12.6563 17.2909 12.6502C17.3316 12.638 17.3895 12.6213 17.4625 12.6006C17.6087 12.5593 17.8162 12.5018 18.0697 12.4324C18.5767 12.2935 19.2679 12.1068 20.0207 11.9054C21.5262 11.5026 22.9689 11.1156 23.2268 11.0452C23.5022 10.9696 23.6556 10.929 23.7432 10.9192C23.7862 10.9143 23.8251 10.9152 23.856 10.9331C23.8897 10.9525 23.902 10.9849 23.9093 11.0079ZM24.2658 12.7391L24.2658 12.739L24.2658 12.7391Z" fill="#0B5AB9" stroke="#0B5AB9" stroke-width="0.1"/>
<path d="M25.3391 20.7008L25.387 20.6864C25.4134 20.7743 25.4845 20.8873 25.5777 20.9939C25.6703 21.0998 25.78 21.1939 25.8786 21.247C25.9822 21.3004 26.1432 21.3302 26.309 21.3307C26.4751 21.3311 26.6358 21.3022 26.7389 21.2471L26.739 21.2471C27.0967 21.057 27.2976 20.6928 27.2678 20.2863C27.2193 19.7134 26.7221 19.3237 26.1487 19.4168L26.1486 19.4168C25.5666 19.5095 25.2113 20.0957 25.3871 20.6865L25.3391 20.7008ZM25.3391 20.7008C25.1554 20.083 25.5268 19.4652 26.1407 19.3674L26.7624 21.2912C26.5357 21.4124 26.0821 21.4085 25.8553 21.2912C25.6441 21.1778 25.3978 20.8963 25.3391 20.7008ZM26.1242 19.8051C26.2075 19.7759 26.2834 19.7635 26.3638 19.7717C26.4435 19.7799 26.5239 19.8081 26.6167 19.8545C26.8187 19.9555 26.9151 20.1613 26.8944 20.4152C26.843 21.144 25.7921 21.1622 25.7195 20.432L25.7195 20.432L25.7195 20.4316C25.7051 20.2758 25.7282 20.1443 25.7972 20.0377C25.8662 19.9312 25.9767 19.8563 26.1242 19.8051ZM26.1242 19.8051L26.1407 19.8523L26.1243 19.805C26.1243 19.805 26.1242 19.8051 26.1242 19.8051Z" fill="#0B5AB9" stroke="#0B5AB9" stroke-width="0.1"/>
<circle cx="18.605" cy="18.6054" r="17" transform="rotate(3.74415 18.605 18.6054)" stroke="#0B5AB9"/>
<rect x="5.79885" y="29.9856" width="33.5981" height="0.5" transform="rotate(-44.3784 5.79885 29.9856)" fill="#0B5AB9" stroke="#0B5AB9" stroke-width="0.5"/>
</svg>
