<svg width="36" height="35" viewBox="0 0 36 35" fill="none" xmlns="http://www.w3.org/2000/svg">
<path d="M21.1124 0.0864773C19.259 0.387396 17.4603 1.12602 15.9215 2.21343C15.1556 2.75372 13.6852 4.24464 13.1175 5.04481C12.8645 5.40045 12.4541 6.09119 12.2079 6.58361C11.4146 8.17027 11.0316 9.61332 10.9632 11.2752C10.9222 12.2327 10.929 12.2806 11.0726 12.4242C11.2641 12.6157 11.7087 12.6225 11.8933 12.4379C12.0369 12.2942 12.078 12.0549 12.1327 11.0632C12.2011 9.89372 12.5567 8.61481 13.1654 7.32907C14.6221 4.25832 17.3646 2.11085 20.8046 1.33803C21.4202 1.20125 21.6937 1.18073 22.9795 1.18073C24.2652 1.18073 24.5388 1.20125 25.1543 1.33803C27.8831 1.94671 30.2836 3.50602 31.8224 5.66033C32.3422 6.39895 33.0808 7.82832 33.3338 8.61481C33.7373 9.85269 33.8194 10.4409 33.8194 12.0207C33.8194 13.3064 33.7989 13.58 33.6621 14.1955C33.2381 16.0831 32.4653 17.6561 31.2479 19.1128C29.8322 20.7952 27.719 22.0878 25.5099 22.6213C24.7576 22.7991 24.5525 22.9427 24.5525 23.2847C24.5525 23.8591 24.8739 23.9891 25.7767 23.7907C29.8391 22.9017 33.2039 19.8651 34.5307 15.8779C34.9889 14.5101 35.0163 14.3118 35.0163 12.0002C35.0163 9.81165 34.9889 9.5928 34.6127 8.36177C33.5869 5.06533 31.0359 2.25447 27.8421 0.914005C27.035 0.578892 26.4537 0.394236 25.5031 0.182224C24.655 -0.00926971 22.0425 -0.063982 21.1124 0.0864773Z" fill="#0B5AB9"/>
<path d="M10.5117 13.238C10.4433 13.3064 9.90299 15.0846 9.30115 17.191C8.69932 19.2906 8.15219 21.103 8.09064 21.2192C7.87179 21.6228 7.42725 22.1562 7.0511 22.4503C6.83908 22.6213 6.64759 22.758 6.62023 22.758C6.58604 22.758 6.56552 22.6213 6.56552 22.4503C6.56552 22.2314 6.52449 22.1015 6.42874 22.0057C6.2988 21.8758 6.20305 21.869 3.28276 21.869C0.362471 21.869 0.266724 21.8758 0.136782 22.0057C0 22.1425 0 22.2314 0 28.4345C0 34.6375 0 34.7264 0.136782 34.8632C0.266724 34.9932 0.362471 35 3.28276 35C6.20305 35 6.2988 34.9932 6.42874 34.8632C6.52449 34.7675 6.56552 34.6375 6.56552 34.4255V34.1246L8.05644 34.5623L9.54052 35H14.6014H19.6624L20.0727 34.8085C20.5378 34.5828 20.9413 34.1793 21.1601 33.7074C21.2696 33.468 21.3037 33.256 21.3037 32.8047C21.3037 32.2849 21.2832 32.1755 21.0917 31.813L20.8797 31.4026L21.1738 31.1496C21.3311 31.006 21.55 30.7187 21.6594 30.4999C21.8235 30.1648 21.8509 30.028 21.8509 29.5219C21.8509 29.0021 21.8304 28.8927 21.6389 28.5302L21.4268 28.1199L21.7209 27.8668C21.8782 27.7232 22.0971 27.436 22.2065 27.2171C22.3706 26.882 22.398 26.7452 22.398 26.2391C22.398 25.7194 22.3775 25.6099 22.186 25.2475L21.974 24.8371L22.2817 24.5704C23.4581 23.5445 23.0956 21.4586 21.6457 20.9183C21.2764 20.7815 21.1464 20.7747 17.5422 20.7747C14.0406 20.7747 13.8149 20.7679 13.8149 20.6516C13.8149 20.59 13.9107 19.8104 14.0201 18.9282C14.3142 16.6029 14.28 15.8506 13.8423 14.9205C13.6303 14.4691 13.0148 13.792 12.6044 13.5458C11.9068 13.1423 10.751 12.9713 10.5117 13.238ZM11.9684 14.5648C12.6728 14.9888 13.0627 15.7822 13.0627 16.767C13.0558 17.0337 12.9395 18.1759 12.7959 19.3043C12.5634 21.0893 12.5429 21.3834 12.6249 21.5749C12.6728 21.7117 12.7754 21.8074 12.8712 21.8348C12.9601 21.8553 14.8271 21.8758 17.0293 21.8895C20.9276 21.9032 21.037 21.91 21.2696 22.0468C22.0013 22.4776 22.0013 23.4488 21.2696 23.8796C21.0507 24.0096 20.8866 24.0233 19.3683 24.0575C17.5012 24.0985 17.5081 24.0917 17.5081 24.6046C17.5081 25.1038 17.5354 25.1107 19.0947 25.1517C20.3326 25.1791 20.5104 25.1996 20.7224 25.3295C21.4542 25.7604 21.4542 26.7315 20.7224 27.1624C20.5036 27.2924 20.3394 27.306 18.8212 27.3402C16.9541 27.3813 16.9609 27.3744 16.9609 27.8874C16.9609 28.3866 16.9883 28.3934 18.5476 28.4345C19.7855 28.4618 19.9633 28.4824 20.1753 28.6123C20.9071 29.0432 20.9071 30.0143 20.1753 30.4452C19.9564 30.5751 19.7923 30.5888 18.274 30.623C16.407 30.664 16.4138 30.6572 16.4138 31.1701C16.4138 31.6694 16.4412 31.6762 18.0005 31.7172C19.2383 31.7446 19.4162 31.7651 19.6282 31.8951C20.36 32.3259 20.36 33.2971 19.6282 33.7279C19.3956 33.8716 19.2862 33.8716 14.7382 33.8921L10.0876 33.9126L8.33 33.4133L6.56552 32.9141V28.4482C6.56552 24.1669 6.57236 23.9891 6.68862 23.9891C6.91431 23.9891 7.61874 23.5924 8.00857 23.2436C8.3984 22.8948 8.98656 22.1562 9.18489 21.7664C9.2396 21.6501 9.73886 19.9882 10.286 18.0733C10.8399 16.1515 11.305 14.5306 11.3255 14.4622C11.3802 14.2913 11.5512 14.3186 11.9684 14.5648ZM5.47127 28.4345V33.9057H3.28276H1.09425V28.4345V22.9632H3.28276H5.47127V28.4345Z" fill="#0B5AB9"/>
<path d="M24.0625 13.7747H18.2422V12.5481H24.0625C24.6302 12.5481 25.0964 12.4569 25.4609 12.2747C25.8255 12.0924 26.0938 11.8346 26.2656 11.5012C26.4427 11.1679 26.5312 10.7747 26.5312 10.3215C26.5312 9.95174 26.4479 9.59757 26.2812 9.25903C26.1198 8.92049 25.8568 8.64185 25.4922 8.4231C25.1328 8.20435 24.6562 8.09497 24.0625 8.09497H21.3594V18.2356H19.8594V6.8606H24.0625C24.9219 6.8606 25.6458 7.00903 26.2344 7.30591C26.8229 7.59757 27.2682 8.00382 27.5703 8.52466C27.8776 9.04028 28.0312 9.63403 28.0312 10.3059C28.0312 11.0351 27.8776 11.6601 27.5703 12.1809C27.2682 12.6965 26.8229 13.0924 26.2344 13.3684C25.6458 13.6392 24.9219 13.7747 24.0625 13.7747ZM23.9688 14.845V16.0793H18.2422V14.845H23.9688Z" fill="#0B5AB9"/>
</svg>
