<svg width="19" height="15" viewBox="0 0 19 15" fill="none" xmlns="http://www.w3.org/2000/svg">
<path d="M18.313 5.5635C18.4552 5.45045 18.6667 5.55621 18.6667 5.73489V13.1924C18.6667 14.1588 17.8828 14.9429 16.9167 14.9429H1.75C0.783855 14.9429 0 14.1588 0 13.1924V5.73854C0 5.55621 0.207813 5.4541 0.353646 5.56714C1.17031 6.20167 2.25313 7.0076 5.97188 9.70982C6.74115 10.2714 8.03907 11.453 9.33334 11.4457C10.6349 11.4566 11.9583 10.2495 12.6985 9.70982C16.4172 7.0076 17.4964 6.19803 18.313 5.5635ZM9.33334 10.2751C10.1792 10.2897 11.3969 9.21022 12.0094 8.76532C16.8474 5.25353 17.2156 4.9472 18.3313 4.07199C18.5427 3.90789 18.6667 3.65262 18.6667 3.38276V2.68988C18.6667 1.7235 17.8828 0.939453 16.9167 0.939453H1.75C0.783855 0.939453 0 1.7235 0 2.68988V3.38276C0 3.65262 0.123958 3.90424 0.335417 4.07199C1.45104 4.94356 1.81927 5.25353 6.6573 8.76532C7.2698 9.21022 8.48751 10.2897 9.33334 10.2751Z" fill="#007DFF"/>
</svg>
