<svg width="13" height="21" viewBox="0 0 13 21" fill="none" xmlns="http://www.w3.org/2000/svg">
<path d="M6.25391 0.918945C2.79925 0.918945 0 3.70762 0 7.16187C0 13.1346 6.25391 20.9238 6.25391 20.9238C6.25391 20.9238 12.5078 13.1333 12.5078 7.16187C12.5078 3.70887 9.70856 0.918945 6.25391 0.918945ZM6.25391 10.6161C5.35824 10.6161 4.49926 10.2602 3.86593 9.62675C3.2326 8.99326 2.8768 8.13407 2.8768 7.23819C2.8768 6.3423 3.2326 5.48311 3.86593 4.84963C4.49926 4.21614 5.35824 3.86025 6.25391 3.86025C7.14957 3.86025 8.00855 4.21614 8.64188 4.84963C9.27521 5.48311 9.63102 6.3423 9.63102 7.23819C9.63102 8.13407 9.27521 8.99326 8.64188 9.62675C8.00855 10.2602 7.14957 10.6161 6.25391 10.6161Z" fill="#007DFF"/>
</svg>
