<svg width="21" height="21" viewBox="0 0 21 21" fill="none" xmlns="http://www.w3.org/2000/svg">
<path d="M8.48926 12.6105C9.74113 13.8808 11.2559 14.8616 12.9271 15.4839L15.1879 13.6843C15.255 13.6381 15.3344 13.6134 15.4158 13.6134C15.4972 13.6134 15.5767 13.6381 15.6437 13.6843L19.8416 16.3897C20.001 16.4856 20.1359 16.6172 20.2357 16.7741C20.3355 16.9311 20.3974 17.1091 20.4166 17.2941C20.4358 17.4791 20.4117 17.6661 20.3463 17.8402C20.2809 18.0143 20.1758 18.1708 20.0395 18.2973L18.0725 20.2409C17.7908 20.5194 17.4446 20.7237 17.0647 20.8357C16.6849 20.9477 16.2832 20.9639 15.8956 20.8828C12.0288 20.084 8.46476 18.2131 5.61069 15.4839C2.81996 12.7276 0.888795 9.22048 0.0514459 5.38795C-0.0312734 5.00621 -0.0140087 4.60957 0.101567 4.23646C0.217142 3.86336 0.427109 3.52645 0.711119 3.25838L2.75011 1.29077C2.87629 1.16107 3.03016 1.06161 3.20021 0.99982C3.37027 0.938034 3.55209 0.915531 3.73207 0.933996C3.91205 0.95246 4.08552 1.01141 4.23949 1.10644C4.39347 1.20147 4.52395 1.33011 4.62118 1.48274L7.4158 5.6279C7.464 5.69299 7.49002 5.77185 7.49002 5.85285C7.49002 5.93385 7.464 6.01271 7.4158 6.07781L5.57471 8.29136C6.21374 9.92959 7.20934 11.405 8.48926 12.6105Z" fill="#007DFF"/>
</svg>
