<svg width="34" height="29" viewBox="0 0 34 29" fill="none" xmlns="http://www.w3.org/2000/svg">
<path d="M16.5136 0.521843C16.2606 0.612646 16.6368 0.35321 8.11433 6.26834C4.02822 9.0962 0.636099 11.4765 0.57124 11.5479C0.42855 11.7165 0.370177 11.9435 0.422064 12.1446C0.441522 12.2354 0.6815 12.631 0.953907 13.0396C1.84896 14.3692 1.94625 14.3952 3.06831 13.6363C3.47043 13.3639 3.8531 13.0915 3.91796 13.0396C4.02173 12.9488 4.02822 13.2926 4.02822 20.213V27.4902H2.43918C1.16794 27.4902 0.804732 27.5096 0.662042 27.5875C0.35072 27.7431 0.305318 28.0545 0.558268 28.3009L0.713929 28.4631H17H33.2861L33.4417 28.3009C33.6947 28.0545 33.6493 27.7431 33.338 27.5875C33.1953 27.5096 32.8321 27.4902 31.5608 27.4902H29.9718V20.213C29.9718 13.2926 29.9783 12.9488 30.0885 13.0396C30.1469 13.0915 30.5296 13.3639 30.9317 13.6363C31.71 14.1617 31.9824 14.246 32.2872 14.032C32.4299 13.9347 33.312 12.6829 33.5001 12.3197C33.6363 12.0667 33.6298 11.8722 33.4871 11.6452C33.3639 11.4506 27.572 7.40338 27.3255 7.33852C27.092 7.28014 26.8326 7.50715 26.8067 7.77956C26.7937 7.95468 26.8261 8.03899 26.9688 8.16871C27.0661 8.266 28.3179 9.14808 29.7448 10.1404C31.1717 11.1263 32.378 11.9694 32.4234 12.0148C32.4883 12.0797 32.4429 12.19 32.1705 12.5921L31.8332 13.085L31.5349 12.871C30.3026 11.9759 17.3178 3.00594 17.1816 2.94757C17.0519 2.90217 16.9481 2.90217 16.8249 2.94757C16.6822 3.00594 3.69744 11.9759 2.46512 12.871L2.16677 13.085L1.8295 12.5921C1.5571 12.19 1.51169 12.0797 1.57655 12.0148C1.75816 11.8397 16.6562 1.52067 16.8249 1.45581C16.9481 1.41041 17.0519 1.41041 17.1816 1.45581C17.2789 1.49473 19.1079 2.7465 21.2483 4.23177C23.3821 5.71704 25.2047 6.94936 25.289 6.97531C25.5225 7.03368 25.7819 6.80667 25.8014 6.53427C25.8143 6.41104 25.7819 6.26834 25.7365 6.20997C25.6327 6.08025 18.0248 0.79425 17.6875 0.619131C17.3892 0.46347 16.7989 0.411583 16.5136 0.521843ZM23.0578 8.16223L28.9924 12.2808L28.9989 19.8822V27.4902H27.7341H26.4694V26.3292C26.4694 25.259 26.4564 25.1618 26.3332 24.9996C26.1646 24.7856 25.8597 24.7726 25.6457 24.9737C25.503 25.1099 25.4965 25.1423 25.4965 26.3033V27.4902H24.5561H23.6156V27.14C23.6156 26.8027 23.6221 26.7832 23.7972 26.7443C23.9918 26.7054 24.3226 26.4006 24.4523 26.1476C24.4977 26.0568 24.5236 25.4471 24.5236 24.351C24.5236 22.8139 24.5301 22.6906 24.6404 22.6906C24.822 22.6906 25.1592 22.4507 25.2695 22.2431C25.4057 21.9772 25.4057 20.9394 25.2695 20.6735C25.062 20.2779 24.8739 20.226 23.661 20.226H22.5714L22.2211 19.4866C21.6763 18.3516 21.3131 18.0727 20.3986 18.0597C19.7824 18.0532 19.5944 18.157 19.5944 18.5072C19.5944 18.864 19.7176 18.9548 20.2689 19.0002C20.6191 19.0261 20.8007 19.0715 20.9045 19.1623C21.0342 19.279 22.2211 21.6464 22.1693 21.6918C22.1563 21.7048 19.8214 21.7113 16.987 21.7048L11.8307 21.6853L12.4274 20.44C12.9269 19.4088 13.0631 19.1818 13.2252 19.0974C13.4003 19.0066 13.7506 18.9937 15.6769 18.9937C17.9015 18.9937 17.934 18.9937 18.0831 18.851C18.2647 18.6823 18.2777 18.4164 18.1091 18.2089L17.9859 18.0532H15.5601C13.1409 18.0532 13.1409 18.0532 12.8296 18.2089C12.421 18.4099 12.155 18.7537 11.7789 19.5579L11.4675 20.226H10.3584C9.17153 20.226 9.02884 20.2584 8.78886 20.6087C8.67212 20.7708 8.60077 21.5232 8.65914 21.9318C8.71103 22.282 8.99641 22.6128 9.28828 22.6712L9.47637 22.7036V24.3056C9.47637 25.7195 9.49582 25.9336 9.5996 26.1671C9.7358 26.4654 10.0082 26.7054 10.2676 26.7573C10.4363 26.7897 10.4493 26.8092 10.4493 27.14V27.4902H9.5088H8.56834V22.3988V17.3073H17.0324H25.4965V20.226V23.1511L25.6587 23.3068C25.8597 23.5143 26.1062 23.5143 26.3073 23.3068L26.4694 23.1511V18.6629C26.4694 13.6104 26.4953 13.8568 25.9894 13.6104C25.717 13.4807 25.6457 13.4807 17.0843 13.4807C12.3366 13.4807 8.36079 13.5001 8.24405 13.5196C8.1273 13.5455 7.93272 13.6623 7.81598 13.7855L7.59546 14.006V20.7449V27.4902H6.29828H5.0011V19.8822L5.00759 12.2808L10.9551 8.14925C14.224 5.87271 16.9546 4.02423 17.013 4.03071C17.0778 4.0372 19.7954 5.89865 23.0578 8.16223ZM25.4965 14.6805V14.9076H17.0324H8.56834V14.6805V14.4535H17.0324H25.4965V14.6805ZM25.4965 16.1074V16.3345H17.0324H8.56834V16.1074V15.8804H17.0324H25.4965V16.1074ZM10.9681 21.2313C10.9681 21.2443 10.9162 21.361 10.8579 21.4907L10.7476 21.7177H10.1768H9.60608V21.4583V21.1989H10.2871C10.6633 21.1989 10.9681 21.2118 10.9681 21.2313ZM24.3939 21.4583V21.7177H23.8361H23.2848L23.1875 21.4907C23.1421 21.3675 23.0967 21.2508 23.0967 21.2313C23.0967 21.2118 23.3886 21.1989 23.7453 21.1989H24.3939V21.4583ZM23.5183 24.2797V25.8363L17.0713 25.8557C12.3626 25.8622 10.6049 25.8493 10.5401 25.7974C10.4168 25.6936 10.4103 22.8852 10.5271 22.7685C10.5855 22.7101 12.0967 22.6906 17.0649 22.7036L23.5183 22.7231V24.2797ZM12.6545 27.1659V27.4902H12.0383H11.4221V27.1659V26.8416H12.0383H12.6545V27.1659ZM20.3727 27.1659V27.4902H17H13.6273V27.1659V26.8416H17H20.3727V27.1659ZM22.6427 27.1659V27.4902H21.9941H21.3455V27.1659V26.8416H21.9941H22.6427V27.1659Z" fill="white"/>
<path d="M13.076 8.2206C12.6739 8.46058 12.6545 8.53841 12.6545 10.0496C12.6545 11.5479 12.6804 11.6646 13.0436 11.8851C13.2058 11.9759 13.6209 11.9889 17.013 11.9889C20.6905 11.9889 20.8007 11.9824 21.0083 11.8592C21.365 11.6387 21.4104 11.4376 21.4104 10.0302C21.4104 8.61624 21.365 8.43464 20.9499 8.21412C20.7489 8.10386 20.4894 8.09737 17 8.09737C13.4847 8.09737 13.2576 8.10386 13.076 8.2206ZM20.4375 10.0431V11.016H17.0324H13.6273V10.0431V9.07025H17.0324H20.4375V10.0431Z" fill="white"/>
<path d="M11.5843 23.002C10.6763 23.4365 10.5011 24.6105 11.247 25.2655C11.5454 25.5314 11.8762 25.6287 12.3042 25.5963C13.5365 25.4925 13.9516 23.8386 12.9269 23.1187C12.5701 22.8658 11.9799 22.8139 11.5843 23.002ZM12.421 23.9619C12.4793 24.0138 12.5247 24.1435 12.5247 24.2472C12.5247 24.4807 12.3756 24.6364 12.155 24.6364C11.8048 24.6364 11.6427 24.2991 11.8502 24.0008C11.967 23.8321 12.2718 23.8062 12.421 23.9619Z" fill="white"/>
<path d="M21.3131 23.002C20.4051 23.4365 20.23 24.6105 20.9758 25.2655C21.2742 25.5314 21.605 25.6287 22.0331 25.5963C23.2719 25.4925 23.6805 23.8386 22.6557 23.1187C22.299 22.8658 21.7088 22.8139 21.3131 23.002ZM22.1044 23.91C22.2406 23.9943 22.3119 24.2732 22.2341 24.4159C22.1433 24.5845 22.059 24.6364 21.8514 24.6364C21.6698 24.6364 21.4753 24.4353 21.4753 24.2472C21.4753 24.0592 21.6698 23.8581 21.8514 23.8581C21.9487 23.8581 22.059 23.884 22.1044 23.91Z" fill="white"/>
<path d="M14.2046 24.5002C14.0943 24.5845 14.0554 24.6883 14.0554 24.8634C14.0554 25.0385 14.0943 25.1423 14.2046 25.2266C14.3473 25.3434 14.5094 25.3498 17 25.3498C19.5749 25.3498 19.6462 25.3434 19.8149 25.2136C20.0354 25.0385 20.0484 24.7142 19.8343 24.5196C19.6852 24.377 19.6657 24.377 17.0195 24.377C14.5159 24.377 14.3473 24.3834 14.2046 24.5002Z" fill="white"/>
</svg>
